<svg width="81" height="65" viewBox="0 0 81 65" fill="none" xmlns="http://www.w3.org/2000/svg">
<path d="M14.1751 13C10.8212 13 8.1001 15.1836 8.1001 17.875C8.1001 19.4086 8.99869 20.8508 10.5301 21.775L36.8551 37.6187C39.0193 38.9187 41.9809 38.9187 44.1451 37.6187L70.4701 21.775C72.0015 20.8508 72.9001 19.4086 72.9001 17.875C72.9001 15.1836 70.179 13 66.8251 13H14.1751ZM8.1001 26.4062V45.5C8.1001 49.0852 11.7324 52 16.2001 52H64.8001C69.2677 52 72.9001 49.0852 72.9001 45.5V26.4062L47.7901 41.5187C43.4743 44.1187 37.5259 44.1187 33.2101 41.5187L8.1001 26.4062Z" fill="black"/>
</svg>
