<svg width="81" height="61" viewBox="0 0 81 61" fill="none" xmlns="http://www.w3.org/2000/svg">
<path d="M60.3576 15.3548C55.0546 11.3517 47.9924 9.14999 40.4872 9.14999C24.996 9.14999 12.3904 18.6431 12.3904 30.3094C12.3904 34.0361 13.6813 37.677 16.1366 40.8891L12.1499 51.85L27.0463 48.9048C31.1469 50.5919 35.7665 51.4783 40.4746 51.4783H40.4872C55.9658 51.4783 68.8499 41.9852 68.8499 30.3189C68.8499 24.6669 65.6605 19.358 60.3576 15.3548ZM40.4872 47.9136C36.2854 47.9136 32.1721 47.0653 28.5904 45.4641L27.7424 45.0828L18.9083 46.827L21.2624 40.3363L20.7055 39.6691C18.3641 36.8669 17.1365 33.6358 17.1365 30.3094C17.1365 20.6161 27.6158 12.7242 40.4999 12.7242C46.7394 12.7242 52.5993 14.5542 57.0037 17.8806C61.408 21.207 64.1165 25.62 64.1038 30.3189C64.1038 40.0217 53.3587 47.9136 40.4872 47.9136ZM53.2954 34.7414C52.5993 34.4745 49.1441 33.1973 48.4987 33.0258C47.8532 32.8447 47.3849 32.7589 46.9166 33.2927C46.4483 33.8264 45.1068 35.0083 44.6891 35.3705C44.2841 35.7231 43.8665 35.7708 43.1704 35.5039C39.0444 33.9503 36.336 32.7303 33.6149 29.2133C32.8935 28.2792 34.3363 28.3459 35.6779 26.3253C35.9057 25.9727 35.7918 25.6677 35.6146 25.4008C35.4374 25.1339 34.0326 22.5319 33.4504 21.4739C32.8808 20.4445 32.2987 20.5875 31.8683 20.5684C31.4633 20.5494 30.9951 20.5494 30.5268 20.5494C30.0585 20.5494 29.2991 20.6828 28.6537 21.207C28.0082 21.7408 26.1983 23.018 26.1983 25.62C26.1983 28.222 28.7169 30.7383 29.0587 31.0909C29.413 31.4436 34.0072 36.7811 41.0568 39.0781C45.5118 40.5269 47.2583 40.6508 49.4858 40.403C50.8401 40.2505 53.6371 39.1258 54.2193 37.8867C54.8015 36.6477 54.8015 35.5897 54.6243 35.3705C54.4597 35.1322 53.9915 34.9987 53.2954 34.7414Z" fill="black"/>
</svg>
