<svg width="85" height="59" viewBox="0 0 85 59" fill="none" xmlns="http://www.w3.org/2000/svg">
<path d="M42.5398 18.8984C34.1062 18.88 27.2531 23.6184 27.2266 29.4723C27.2 35.3263 34.0266 40.0831 42.4602 40.1016C50.8938 40.12 57.7469 35.3816 57.7734 29.5277C57.8 23.6738 50.9734 18.9169 42.5398 18.8984ZM42.4602 22.6228C47.932 22.6044 52.3813 25.6742 52.4078 29.4723C52.4344 33.2705 48.0117 36.3588 42.5398 36.3772C37.068 36.3956 32.6187 33.3258 32.5922 29.5277C32.5656 25.7295 36.9883 22.6413 42.4602 22.6228ZM54.8648 18.4652C54.8648 17.1008 56.4586 15.9945 58.4242 15.9945C60.3898 15.9945 61.9836 17.1008 61.9836 18.4652C61.9836 19.8295 60.3898 20.9358 58.4242 20.9358C56.4586 20.9358 54.8648 19.8295 54.8648 18.4652ZM72.0906 20.9727C71.8648 17.6631 70.7758 14.7316 67.2828 12.3163C63.8031 9.90094 59.5797 9.145 54.8117 8.97907C49.8977 8.78547 35.1688 8.78547 30.2547 8.97907C25.5 9.13578 21.2766 9.89172 17.7836 12.307C14.2906 14.7223 13.2148 17.6539 12.9758 20.9634C12.6969 24.3744 12.6969 34.598 12.9758 38.0089C13.2016 41.3184 14.2906 44.25 17.7836 46.6653C21.2766 49.0806 25.4867 49.8366 30.2547 50.0025C35.1688 50.1961 49.8977 50.1961 54.8117 50.0025C59.5797 49.8458 63.8031 49.0898 67.2828 46.6653C70.7625 44.25 71.8516 41.3184 72.0906 38.0089C72.3695 34.598 72.3695 24.3836 72.0906 20.9727ZM65.7422 41.6688C64.7062 43.4756 62.7008 44.8677 60.0844 45.5959C56.1664 46.6745 46.8695 46.4256 42.5398 46.4256C38.2102 46.4256 28.9 46.6653 24.9953 45.5959C22.3922 44.8769 20.3867 43.4848 19.3375 41.6688C17.7836 38.9492 18.1422 32.4961 18.1422 29.4908C18.1422 26.4855 17.7969 20.0231 19.3375 17.3128C20.3734 15.5059 22.3789 14.1139 24.9953 13.3856C28.9133 12.307 38.2102 12.5559 42.5398 12.5559C46.8695 12.5559 56.1797 12.3163 60.0844 13.3856C62.6875 14.1047 64.693 15.4967 65.7422 17.3128C67.2961 20.0323 66.9375 26.4855 66.9375 29.4908C66.9375 32.4961 67.2961 38.9584 65.7422 41.6688Z" fill="black"/>
</svg>
