<svg width="43" height="41" viewBox="0 0 43 41" fill="none" xmlns="http://www.w3.org/2000/svg">
<path d="M39.4166 28.905V34.03C39.4186 34.5058 39.3164 34.9767 39.1165 35.4126C38.9166 35.8486 38.6234 36.2399 38.2557 36.5615C37.888 36.8832 37.4539 37.128 36.9812 37.2805C36.5086 37.4329 36.0077 37.4895 35.5107 37.4467C29.9975 36.8755 24.7016 35.0792 20.0486 32.2021C15.7197 29.5792 12.0495 26.0797 9.29865 21.9521C6.27069 17.4954 4.38634 12.4213 3.79823 7.14084C3.75346 6.66843 3.81234 6.1923 3.97113 5.74278C4.12992 5.29325 4.38513 4.88018 4.72052 4.52986C5.05591 4.17953 5.46413 3.89963 5.91919 3.70798C6.37425 3.51632 6.86618 3.41712 7.36365 3.41667H12.7387C13.6082 3.40851 14.4511 3.7021 15.1104 4.2427C15.7697 4.78331 16.2003 5.53406 16.322 6.355C16.5488 7.99512 16.9696 9.6055 17.5762 11.1554C17.8172 11.7669 17.8694 12.4314 17.7265 13.0703C17.5836 13.7091 17.2516 14.2955 16.7699 14.76L14.4945 16.9296C17.045 21.2065 20.759 24.7477 25.2445 27.1796L27.5199 25.01C28.007 24.5507 28.6221 24.2342 29.2921 24.0979C29.9621 23.9617 30.659 24.0114 31.3003 24.2413C32.9258 24.8196 34.6148 25.2208 36.3349 25.4371C37.2052 25.5542 38.0001 25.9721 38.5683 26.6116C39.1365 27.251 39.4384 28.0672 39.4166 28.905Z" stroke="#1E1E1E" stroke-width="4" stroke-linecap="round" stroke-linejoin="round"/>
</svg>
